<svg xmlns="http://www.w3.org/2000/svg" viewBox="0 0 100 100" width="100" height="100">
  <!-- Background circle -->
  <circle cx="50" cy="50" r="48" fill="#FCFBF8" stroke="#81976F" stroke-width="1" />
  
  <!-- Golden ratio spiral based on Fibonacci sequence -->
  <path d="M50,50 m0,-38 a38,38 0 1,1 0,76 a38,38 0 1,1 0,-76" 
        fill="none" 
        stroke="#81976F" 
        stroke-width="1.5" />
  
  <!-- Inner golden ratio spiral -->
  <path d="M50,50 m0,-23.6 a23.6,23.6 0 1,1 0,47.2 a23.6,23.6 0 1,1 0,-47.2" 
        fill="none" 
        stroke="#81976F" 
        stroke-width="1" />
  
  <!-- Olive branch symbol (simplified) -->
  <path d="M35,60 C40,55 45,50 53,48 C60,46 65,47 70,50 C65,45 60,44 55,46 C50,48 45,52 42,58 C39,63 38,67 40,72 C45,68 50,65 55,64 C60,63 65,64 70,66"
        fill="none" 
        stroke="#81976F" 
        stroke-width="1.5"
        stroke-linecap="round" />
  
  <!-- Leaves on the branch -->
  <path d="M43,55 C45,53 47,53 48,55" stroke="#81976F" fill="none" stroke-width="1" />
  <path d="M48,52 C50,50 52,50 53,52" stroke="#81976F" fill="none" stroke-width="1" />
  <path d="M54,50 C56,48 58,48 59,50" stroke="#81976F" fill="none" stroke-width="1" />
  <path d="M59,64 C61,62 63,62 64,64" stroke="#81976F" fill="none" stroke-width="1" />
  <path d="M53,66 C55,64 57,64 58,66" stroke="#81976F" fill="none" stroke-width="1" />
  <path d="M47,68 C49,66 51,66 52,68" stroke="#81976F" fill="none" stroke-width="1" />
  
  <!-- Text "RO" in the center -->
  <text x="50" y="53" font-family="'Playfair Display', serif" font-size="16" text-anchor="middle" fill="#353632">RO</text>
</svg> 